<svg id="레이어_1" data-name="레이어 1" xmlns="http://www.w3.org/2000/svg" viewBox="0 0 255.63 255.96"><defs><style>.cls-1{fill:#9b9b9b;}</style></defs><title>phone</title><path class="cls-1" d="M2291.06,331.28c-9.71-9.73-19.46-19.42-29.11-29.22-11-11.17-25.91-11.25-36.91-.09-5.61,5.69-11.25,11.34-17.17,17.3a174.46,174.46,0,0,1-68.77-68.7c0.93-.81,1.46-1.22,1.92-1.69,5.81-5.86,11.75-11.58,17.35-17.63a23.79,23.79,0,0,0,6.67-15.49c0.34-8.13-3.38-14.43-8.8-19.93q-14.84-15-29.85-29.89c-10.28-10.22-25.75-10.26-36-.05-6.33,6.28-12.55,12.67-18.8,19a40,40,0,0,0-8.62,12.73c-4.13,9.93-3.76,20.19-2.12,30.47,2,12.74,6.47,24.77,12.06,36.31q32.41,67,95.22,107c21.74,13.8,44.57,25.3,70.85,27.74,11.75,1.09,22.76-1.13,31.67-9.18,7.71-7,14.9-14.53,22-22.15,5.43-5.83,8.26-12.81,7-21C2298.55,340.58,2295.4,335.63,2291.06,331.28Zm-9.65,27.31q-9,9.5-18.34,18.76c-6.44,6.45-14.48,8.11-23.23,7.3-20.65-1.91-38.89-10.6-56.35-20.91-44.35-26.19-77.6-62.61-99.15-109.49-4.59-10-8.17-20.37-9.56-31.36-0.29-2.31-.34-4.65-0.49-7-0.48-9,2.7-16.37,9.28-22.53,5.59-5.24,10.86-10.82,16.3-16.22,5.85-5.81,11.24-5.87,17.12,0q14.91,14.79,29.67,29.72c5.19,5.24,5.28,10.39.07,15.75-5.8,6-11.81,11.75-17.8,17.55-5.15,5-6,8.94-3.11,15.46,6.54,14.84,16.43,27.35,27.35,39.11,10.64,11.45,22.26,21.81,35.53,30.15,4.85,3,9.92,5.76,15,8.36,4.52,2.31,9.26,1.24,13.22-2.68,5.92-5.86,11.79-11.78,17.69-17.67a28.78,28.78,0,0,1,2.2-2c4.49-3.63,9.37-3.68,13.49.36q15.79,15.5,31.26,31.32C2286.78,347.88,2286.6,353.16,2281.41,358.6Z" transform="translate(-2059.64 -143.44)"/><path class="cls-1" d="M2315.15,256.25a127.91,127.91,0,0,0-16.13-45c-17.84-30.4-43.4-51.61-77-62.79-6.68-2.22-13.62-3.62-18.82-5-5.41-.07-8.76,2.61-9.23,6a7.25,7.25,0,0,0,5.29,8.23c1,0.28,1.94.48,2.91,0.67,34.94,6.86,61.83,25.66,81.26,55.23,9.05,13.78,14.59,29,17.46,45.29A7.23,7.23,0,0,0,2315.15,256.25Z" transform="translate(-2059.64 -143.44)"/><path class="cls-1" d="M2198.63,204.45c29.07,5.76,50.54,27.39,55.83,56.16,0.79,4.29,4.34,6.92,8.44,6.24a7.32,7.32,0,0,0,5.94-8.9q-10.48-49.68-58.67-65.73c-3.52-1.18-7.24-1.76-11.25-2.7a24.09,24.09,0,0,0-4.46,2.15,6.57,6.57,0,0,0-2.32,7.4C2193,202.28,2195.39,203.81,2198.63,204.45Z" transform="translate(-2059.64 -143.44)"/></svg>