<svg id="레이어_1" data-name="레이어 1" xmlns="http://www.w3.org/2000/svg" viewBox="0 0 243.39 256.08"><defs><style>.cls-1{fill:#9b9b9b;}</style></defs><title>printer</title><path class="cls-1" d="M2231.15,726.75v3c0,14.5-.25,29,0.08,43.5,0.25,10.95-8,20.2-20.28,20.15-38.25-.17-76.5-0.05-114.75-0.07-12.16,0-20.15-8-20.15-20.23q0-21.75,0-43.5c0-.91,0-1.82,0-3.18-2.09,0-4,0-6,0-13-.18-23.25-5.65-30.84-16.1a33.52,33.52,0,0,1-6.74-19.77c-0.12-21.58-.3-43.17,0-64.75,0.29-19.38,17.12-35.65,36.49-36,2.24,0,4.48,0,7.11,0,0-2.12,0-4.08,0-6,0-6.49-.32-13,1.59-19.33a37.78,37.78,0,0,1,36.15-27.11q39.62-.1,79.25,0a37.72,37.72,0,0,1,38.13,37.73c0.07,4.82,0,9.64,0,14.5,4.29,0.25,8.36.27,12.37,0.76,16.88,2,31.57,17.67,31.84,34.61q0.52,33.24,0,66.49c-0.25,16.49-14.58,32.08-30.95,34.37C2240.24,726.45,2235.9,726.45,2231.15,726.75Zm0.22-14.15c4.16-.36,8.14-0.23,11.89-1.11,11.06-2.6,18.1-11.85,18.12-23.28,0-19.66-.17-39.33.07-59,0.18-14.63-11.09-25.08-24.92-25-55,.23-110,0.09-165,0.11a29.54,29.54,0,0,0-5.47.33,23.45,23.45,0,0,0-19.47,23.48q-0.07,29.37,0,58.74a33.64,33.64,0,0,0,.39,5.72c2.4,13.72,15,21.71,28.86,19.35V695.4c-3.71,0-7.2.09-10.69,0a6.65,6.65,0,0,1-6.35-4.79,6.82,6.82,0,0,1,1.74-7.35c1.82-1.94,4.25-2,6.71-2q28,0,56,0,57.61,0,115.22,0a16.4,16.4,0,0,1,4.68.47,7,7,0,0,1-2.06,13.68c-3.21.14-6.42,0-9.76,0v17.2Zm-140.9-17v2.94q0,37.23,0,74.46c0,4.74,1.46,6.22,6.27,6.22q57,0,113.93,0c4.71,0,6.25-1.6,6.25-6.34q0-37.23,0-74.46v-2.81H2090.48Zm126.38-105.84c0-5.19.2-10.26,0-15.31-0.62-12.82-10.24-22.48-23.07-22.57q-40.37-.3-80.74,0c-10.19.06-19.19,6.78-21.37,16.73-1.48,6.79-1.13,14-1.61,21.14h126.83Z" transform="translate(-2032.32 -537.36)"/><path class="cls-1" d="M2230.36,632.5c-2.9-.17-5.91-0.12-8.85-0.56A6.61,6.61,0,0,1,2216,625c0-3.33,2.22-6.44,5.54-6.63a153.34,153.34,0,0,1,17.64,0c3.33,0.19,5.72,3.54,5.72,6.8a6.9,6.9,0,0,1-5.75,6.82C2236.29,632.39,2233.36,632.34,2230.36,632.5Z" transform="translate(-2032.32 -537.36)"/><path class="cls-1" d="M2153.56,716.39q22.24,0,44.48,0c5.26,0,8.42,3.21,8,8a6.79,6.79,0,0,1-5.42,6.05,18.94,18.94,0,0,1-3.46.35q-43.86,0-87.72,0c-2.45,0-4.87-.21-6.68-2.14-2-2.17-2.87-4.66-1.73-7.56a7.06,7.06,0,0,1,7-4.67c5-.08,10,0,15,0h30.49Z" transform="translate(-2032.32 -537.36)"/><path class="cls-1" d="M2153.74,759.95q-22.24,0-44.48,0c-2.93,0-5.41-.74-7-3.4a7,7,0,0,1,5.39-10.74c1-.09,2-0.09,3-0.09q43.35,0,86.71,0a16.32,16.32,0,0,1,4.68.46c3.23,1,5,4.13,4.56,7.69a6.9,6.9,0,0,1-6.11,6,26.51,26.51,0,0,1-3,.08h-43.73Z" transform="translate(-2032.32 -537.36)"/></svg>